<svg width="257" height="451" viewBox="0 0 257 451" fill="none" xmlns="http://www.w3.org/2000/svg">
<path d="M0 182.684L9.59032 177.693C12.7218 184.152 17.2233 187.381 24.2692 187.381C32.6851 187.381 36.6972 184.934 36.6972 181.314C36.6972 177.791 34.4463 175.834 25.5411 173.974L22.214 173.289C7.9265 170.353 2.54444 165.167 2.54444 156.653C2.54444 149.216 9.00291 142.17 23.0947 142.17C35.2292 142.17 41.688 147.944 45.7981 156.653L37.0888 161.35C33.468 154.696 29.1619 152.249 23.0947 152.249C15.1681 152.249 12.7216 154.892 12.7216 157.632C12.7216 160.763 14.6788 162.525 22.214 164.384L25.5411 165.167C41.9815 168.592 46.4832 173.779 46.4832 181.803C46.4832 189.24 39.5353 197.46 24.2692 197.46C12.0368 197.46 5.18654 192.47 0 182.684Z" fill="#FFF1BE"/>
<path d="M63.2205 136.491C59.5018 136.491 56.7617 133.653 56.7617 130.13C56.7617 126.607 59.5018 123.867 63.2205 123.867C66.5477 123.867 69.3857 126.607 69.3857 130.13C69.3857 133.653 66.5477 136.491 63.2205 136.491ZM57.9363 196.283V143.048H68.2114V196.283H57.9363Z" fill="#FFF1BE"/>
<path d="M114.164 142.171C127.767 142.171 138.042 154.599 138.042 170.648C138.042 185.327 127.767 197.755 114.164 197.755C103.204 197.755 95.6688 192.177 93.3202 179.456H91.5588L92.5371 196.287H82.0664V118H92.5371V143.052L91.5588 159.688H93.6137C96.2559 148.532 103.595 142.171 114.164 142.171ZM110.543 187.284C120.329 187.284 127.767 180.336 127.767 170.257C127.767 159.982 120.329 153.034 110.543 153.034C101.344 153.034 94.0053 160.373 94.0053 170.355C94.0053 179.358 101.638 187.284 110.543 187.284Z" fill="#FFF1BE"/>
<path d="M158.424 173.387C159.696 181.999 166.057 187.577 174.962 187.577C181.617 187.577 187.293 184.837 191.011 179.259L198.351 184.347C193.36 193.252 184.65 197.754 174.962 197.754C159.696 197.754 147.855 185.326 147.855 169.864C147.855 154.696 159.696 142.17 174.962 142.17C191.403 142.17 201.972 155.577 201.189 173.387H158.424ZM174.962 152.249C166.253 152.249 159.99 158.023 158.522 166.048H191.109C189.739 157.436 183.28 152.249 174.962 152.249Z" fill="#FFF1BE"/>
<path d="M220.598 159.685C222.947 146.963 229.601 143.049 241.051 143.049V154.303C229.21 152.443 221.381 158.511 221.381 172.015V196.284H210.91V143.049H221.381L218.739 159.685H220.598Z" fill="#FFF1BE"/>
<path d="M6.45875 253.925C2.7401 253.925 0 251.087 0 247.564C0 244.041 2.7401 241.301 6.45875 241.301C9.78597 241.301 12.6239 244.041 12.6239 247.564C12.6239 251.087 9.78597 253.925 6.45875 253.925ZM1.17426 313.717V260.481H11.4497V313.717H1.17426Z" fill="#FFF1BE"/>
<path d="M46.5385 259.699C63.4681 259.699 71.6884 268.702 71.6884 283.479V313.718H61.6089L63.2723 296.592H61.8045C59.0644 309.314 51.8229 315.088 41.6455 315.088C28.043 315.088 22.3672 308.433 22.3672 299.234C22.3672 287.198 32.0554 281.424 49.3765 281.424H61.7065C60.7279 273.987 55.3458 270.17 46.5385 270.17C39.4926 270.17 35.7739 273.399 32.1531 278.782L23.7371 272.91C29.1193 265.082 35.6761 259.699 46.5385 259.699ZM42.9177 304.617C53.878 304.617 59.4558 298.158 61.1194 288.959H49.3765C38.1226 288.959 32.7403 291.504 32.7403 297.473C32.7403 301.583 35.8718 304.617 42.9177 304.617Z" fill="#FFF1BE"/>
<path d="M113.835 259.109C127.926 259.109 135.657 266.938 135.657 286.216V313.715H125.382V286.216C125.382 274.865 120.587 269.58 111.486 269.58C102.091 269.58 94.8499 275.941 94.8499 289.446V313.715H84.3789V260.479H94.8499L92.2075 277.115H94.1648C96.4156 263.415 103.168 259.109 113.835 259.109Z" fill="#FFF1BE"/>
<path d="M27.8864 450.719C14.5775 450.719 7.14008 446.218 1.75781 438.389L9.78235 432.909C13.9903 439.074 19.1769 441.423 27.8864 441.423C39.9231 441.423 46.4795 433.202 47.5559 423.025L48.4369 414.315H46.4796C43.6417 427.918 35.4216 432.028 25.8314 432.028C12.914 432.028 1.85577 420.089 1.85577 404.53C1.85577 389.361 12.229 377.129 25.8314 377.129C35.9109 377.129 43.5439 383 46.284 394.548H48.4369L47.4583 377.912H57.9293V414.609C57.9293 438.878 46.2839 450.719 27.8864 450.719ZM29.3542 422.144C37.6723 422.144 45.9904 415.686 45.9904 404.53C45.9904 393.961 38.7487 387.893 29.3542 387.893C19.6661 387.893 12.1309 394.744 12.1309 404.53C12.1309 415.098 19.6661 422.144 29.3542 422.144Z" fill="#FFF1BE"/>
<path d="M70.7227 431.147V352.859H80.9978V431.147H70.7227Z" fill="#FFF1BE"/>
<path d="M118.878 377.129C135.808 377.129 144.028 386.132 144.028 400.909V431.147H133.949L135.612 414.022H134.144C131.404 426.744 124.163 432.517 113.985 432.517C100.383 432.517 94.707 425.863 94.707 416.664C94.707 404.627 104.395 398.854 121.716 398.854H134.047C133.068 391.416 127.686 387.6 118.878 387.6C111.832 387.6 108.114 390.829 104.493 396.211L96.0772 390.34C101.459 382.511 108.016 377.129 118.878 377.129ZM115.258 422.046C126.218 422.046 131.796 415.588 133.46 406.389H121.716C110.462 406.389 105.08 408.933 105.08 414.903C105.08 419.013 108.212 422.046 115.258 422.046Z" fill="#FFF1BE"/>
<path d="M153.754 417.547L163.344 412.556C166.476 419.015 170.977 422.244 178.023 422.244C186.439 422.244 190.451 419.798 190.451 416.177C190.451 412.654 188.201 410.697 179.295 408.837L175.968 408.152C161.681 405.217 156.298 400.03 156.298 391.516C156.298 384.079 162.757 377.033 176.849 377.033C188.983 377.033 195.442 382.807 199.552 391.516L190.843 396.214C187.222 389.559 182.916 387.113 176.849 387.113C168.922 387.113 166.476 389.755 166.476 392.495C166.476 395.626 168.433 397.388 175.968 399.247L179.295 400.03C195.736 403.455 200.237 408.642 200.237 416.666C200.237 424.104 193.289 432.324 178.023 432.324C165.791 432.324 158.94 427.333 153.754 417.547Z" fill="#FFF1BE"/>
<path d="M210.516 417.547L220.106 412.556C223.237 419.015 227.739 422.244 234.785 422.244C243.2 422.244 247.213 419.798 247.213 416.177C247.213 412.654 244.962 410.697 236.057 408.837L232.73 408.152C218.442 405.217 213.06 400.03 213.06 391.516C213.06 384.079 219.519 377.033 233.61 377.033C245.745 377.033 252.204 382.807 256.314 391.516L247.604 396.214C243.983 389.559 239.678 387.113 233.61 387.113C225.684 387.113 223.237 389.755 223.237 392.495C223.237 395.626 225.194 397.388 232.73 399.247L236.057 400.03C252.497 403.455 256.999 408.642 256.999 416.666C256.999 424.104 250.051 432.324 234.785 432.324C222.552 432.324 215.702 427.333 210.516 417.547Z" fill="#FFF1BE"/>
<path d="M24.1713 25C41.1009 25 49.3212 34.0031 49.3212 48.7798V79.0183H39.2417L40.9051 61.8929H39.4373C36.6972 74.6147 29.4557 80.3884 19.2783 80.3884C5.67585 80.3884 0 73.7339 0 64.5351C0 52.4984 9.68817 46.7247 27.0093 46.7247H39.3393C38.3608 39.2874 32.9786 35.4709 24.1713 35.4709C17.1254 35.4709 13.4067 38.7003 9.78593 44.0825L1.37017 38.211C6.75244 30.3822 13.3089 25 24.1713 25ZM20.5505 69.9174C31.5108 69.9174 37.0886 63.4587 38.7522 54.2599H27.0093C15.7554 54.2599 10.3731 56.8042 10.3731 62.7736C10.3731 66.8837 13.5046 69.9174 20.5505 69.9174Z" fill="#FFF1BE"/>
<path d="M91.0979 24.1713C104.7 24.1713 114.976 36.5994 114.976 52.6483C114.976 67.3272 104.7 79.7554 91.0979 79.7554C80.1376 79.7554 72.6024 74.1774 70.2538 61.4557H68.4924L69.471 78.2875H59V0H69.471V25.052L68.4924 41.6881H70.5473C73.1895 30.5321 80.529 24.1713 91.0979 24.1713ZM87.4771 69.2844C97.263 69.2844 104.7 62.3364 104.7 52.2568C104.7 41.9816 97.263 35.0337 87.4771 35.0337C78.2783 35.0337 70.9389 42.3731 70.9389 52.3547C70.9389 61.3578 78.5719 69.2844 87.4771 69.2844Z" fill="#FFF1BE"/>
<g clip-path="url(#clip0_331_17)">
<path d="M175.789 66.1773C171.092 74.6911 162.871 79.5841 151.422 79.5841C136.058 79.5841 125 67.156 125 51.6942C125 36.4282 136.058 24 151.422 24C163.165 24 171.875 29.3823 176.572 38.6789L168.45 44.3548C164.046 37.3089 158.957 34.4709 152.107 34.4709C142.517 34.4709 135.569 41.419 135.569 51.6942C135.569 62.5566 142.517 69.1132 152.107 69.1132C158.664 69.1132 163.948 66.1773 167.569 60.5015L175.789 66.1773Z" fill="#FFF1BE"/>
</g>
<defs>
<clipPath id="clip0_331_17">
<rect width="51.5718" height="55.5841" fill="white" transform="translate(125 24)"/>
</clipPath>
</defs>
</svg>
