<svg width="81" height="73" viewBox="0 0 81 73" fill="none" xmlns="http://www.w3.org/2000/svg">
<path fill-rule="evenodd" clip-rule="evenodd" d="M24.3067 0C24.5935 0 24.9815 0.151697 25.2176 0.38767C25.4706 0.623643 25.6562 1.04502 25.7237 1.60125C25.7911 2.07319 26.0441 3.11822 26.2634 3.96098C26.4996 4.80374 27.0056 6.08474 27.3936 6.82637C27.7984 7.58485 28.5406 8.64673 29.1141 9.25352C29.6708 9.84345 30.4636 10.5682 30.8853 10.8548C31.307 11.1413 32.2853 11.6133 33.0781 11.9166C33.8709 12.22 34.6468 12.574 34.8155 12.7257C34.9842 12.8774 35.1022 13.2314 35.1022 13.619C35.1022 14.0573 35.001 14.3438 34.7312 14.5966C34.5119 14.7989 33.854 15.1191 33.2468 15.3045C32.6395 15.5068 31.6949 15.9619 31.1383 16.3159C30.5816 16.6698 29.6708 17.462 29.1141 18.052C28.5406 18.6587 27.7984 19.7206 27.3936 20.4791C27.0225 21.2207 26.5333 22.3669 26.3478 23.0074C26.1454 23.6479 25.9092 24.6761 25.808 25.2828C25.6899 26.0076 25.5044 26.5133 25.2682 26.7661C25.0208 27.0246 24.7003 27.1538 24.3067 27.1538C23.9132 27.1538 23.5927 27.0246 23.3453 26.7661C23.1091 26.4964 22.9067 25.9233 22.7212 24.9457C22.5862 24.1535 22.2995 23.058 22.1139 22.5017C21.9115 21.9455 21.4729 20.9679 21.1356 20.3106C20.7982 19.6701 20.056 18.6419 19.4994 18.052C18.9427 17.462 18.0319 16.6698 17.4752 16.3159C16.9186 15.9619 15.974 15.5068 15.3667 15.3045C14.7595 15.1191 14.1016 14.7989 13.8823 14.5966C13.6293 14.3607 13.5112 14.0573 13.5112 13.6527C13.5112 13.3325 13.5956 12.928 13.7137 12.7763C13.8317 12.6246 14.5402 12.2706 15.2824 12.0009C16.0246 11.7481 17.0535 11.2593 17.5596 10.9222C18.0656 10.5851 18.9259 9.8266 19.4825 9.25352C20.0223 8.66359 20.7139 7.7197 21.0344 7.16347C21.338 6.60725 21.7766 5.6465 22.0127 5.006C22.2657 4.38236 22.5862 3.16878 22.738 2.32602C22.9404 1.17987 23.126 0.657354 23.3959 0.38767C23.632 0.151697 23.9863 0 24.3067 0ZM22.7043 9.86031C22.3163 10.4165 21.5067 11.3267 20.9163 11.8829C20.3259 12.4392 19.5837 13.0459 19.2801 13.2314C18.9765 13.4168 18.7403 13.6022 18.7403 13.6527C18.7403 13.7033 18.9765 13.8887 19.2801 14.0741C19.5837 14.2595 20.3259 14.8663 20.9163 15.4225C21.5067 15.9788 22.3163 16.8889 22.7043 17.4452C23.1091 18.0014 23.6152 18.8104 23.8176 19.2655C24.0369 19.7038 24.2561 20.0577 24.3067 20.0577C24.3574 20.0577 24.5766 19.7038 24.7959 19.2655C24.9983 18.8104 25.5044 18.0014 25.9092 17.4452C26.2972 16.8889 27.1068 15.9788 27.6972 15.4225C28.2876 14.8663 29.0298 14.2595 29.3334 14.0741C29.637 13.8887 29.8732 13.7033 29.8732 13.6527C29.8732 13.6022 29.637 13.4168 29.3334 13.2314C29.0298 13.0459 28.2876 12.4392 27.6972 11.8829C27.1068 11.3267 26.2972 10.4165 25.9092 9.86031C25.5044 9.30409 24.9983 8.49504 24.7959 8.03994C24.5766 7.60171 24.3405 7.24775 24.2899 7.24775C24.2393 7.24775 24.02 7.60171 23.8176 8.0568C23.5983 8.49504 23.1091 9.30409 22.7043 9.86031ZM52.6449 5.39367C52.8811 5.39367 53.2353 5.51166 53.4546 5.6465C53.657 5.78134 53.8932 6.18587 53.9775 6.53983C54.0618 6.87693 54.1799 7.65227 54.2474 8.25906C54.298 8.86585 54.5848 10.4502 54.8546 11.7987C55.1414 13.1471 55.7824 15.49 56.2884 17.0238C56.8282 18.6756 57.7053 20.8331 58.4307 22.3332C59.1222 23.7322 60.2187 25.6537 60.8596 26.6313C61.5175 27.6089 62.6476 29.0921 63.3898 29.918C64.1152 30.7439 65.3297 31.9575 66.0718 32.598C66.7972 33.2217 67.9779 34.1318 68.6695 34.5869C69.3611 35.042 70.6937 35.7837 71.6214 36.2387C72.5491 36.677 73.9492 37.2501 74.742 37.5029C75.5348 37.7557 76.3444 38.1265 76.5637 38.3288C76.8167 38.5648 76.9348 38.8682 76.9348 39.239C76.9348 39.5255 76.8673 39.93 76.7661 40.1154C76.6481 40.3514 76.0746 40.6211 74.9444 40.9919C74.0504 41.2785 72.7347 41.7673 72.0431 42.0875C71.3515 42.4078 70.3226 42.9471 69.7659 43.2842C69.2093 43.6045 68.1972 44.2955 67.5225 44.7843C66.8646 45.2731 65.7345 46.2339 65.026 46.9081C64.3176 47.5655 63.2718 48.6948 62.7151 49.3858C62.1585 50.0769 61.2307 51.3747 60.6404 52.2512C60.0668 53.1277 59.1391 54.7626 58.5825 55.8751C58.0427 56.9875 57.3005 58.6225 56.9631 59.499C56.6258 60.3754 56.086 62.0104 55.7655 63.1228C55.4282 64.2353 54.9896 66.0894 54.7534 67.2524C54.5173 68.4154 54.2643 69.9998 54.1631 70.792C54.0281 71.8876 53.8932 72.3089 53.6064 72.6123C53.359 72.8595 53.0385 72.9888 52.6449 73C52.2514 72.9888 51.9309 72.8595 51.6835 72.6123C51.3798 72.3089 51.2618 71.837 51.0594 70.3706C50.9244 69.3424 50.6039 67.5726 50.3678 66.4096C50.1147 65.2466 49.5075 63.0554 49.0015 61.5216C48.4617 59.8529 47.6014 57.7292 46.8424 56.2122C46.1676 54.8301 45.1556 52.9928 44.5989 52.1669C44.0423 51.341 43.1314 50.0769 42.5748 49.3858C42.0181 48.6948 40.9892 47.5823 40.3145 46.9418C39.6229 46.2845 38.6108 45.408 38.0541 44.9866C37.4975 44.5652 36.5023 43.8742 35.8613 43.4865C35.2203 43.082 34.0733 42.4752 33.3311 42.1381C32.5889 41.801 31.3407 41.2953 30.5479 41.0425C29.7551 40.7897 28.9454 40.4188 28.7262 40.2166C28.4731 39.9806 28.3551 39.6772 28.3551 39.3232C28.3551 39.0199 28.4225 38.6153 28.5237 38.4299C28.6418 38.194 29.2153 37.9243 30.3455 37.5703C31.2395 37.2838 32.6733 36.7107 33.4998 36.323C34.3263 35.9185 35.8107 35.0757 36.789 34.4184C37.7674 33.7779 39.2349 32.598 40.0614 31.8395C40.888 31.0642 42.0181 29.8506 42.5748 29.1595C43.1314 28.4685 44.0423 27.2043 44.5989 26.3784C45.1556 25.5525 46.1676 23.7322 46.8424 22.3332C47.5845 20.8162 48.4617 18.6924 49.0015 17.0238C49.5075 15.49 50.1485 13.1471 50.4352 11.7987C50.7051 10.4502 50.9919 8.86585 51.0425 8.25906C51.11 7.65227 51.228 6.87693 51.3124 6.53983C51.3967 6.18587 51.6329 5.78134 51.8521 5.6465C52.0546 5.51166 52.4088 5.39367 52.6449 5.39367ZM51.3461 19.0464C50.9244 20.2094 50.1316 22.0972 49.575 23.2602C49.0352 24.4232 48.1918 26.0076 47.7195 26.7998C47.2472 27.592 46.3195 28.9573 45.6785 29.8338C45.0375 30.7102 43.6206 32.3115 42.541 33.3734C41.4615 34.4352 39.859 35.8174 38.9819 36.441C38.1047 37.0646 36.6372 37.9411 35.7432 38.3794C34.8492 38.8176 34.1239 39.2221 34.1239 39.2727C34.1239 39.3232 34.8492 39.7278 35.7432 40.166C36.6372 40.6042 38.1047 41.4807 38.9819 42.1044C39.859 42.728 41.4615 44.1101 42.541 45.172C43.6206 46.2339 44.9531 47.7172 45.5098 48.4588C46.0664 49.2004 46.9773 50.532 47.5002 51.4085C48.04 52.2849 48.9677 54.0042 49.5412 55.2009C50.1147 56.3976 50.9244 58.3359 51.3461 59.499C51.7509 60.662 52.2064 62.0104 52.3244 62.4992C52.4594 62.988 52.5943 63.3757 52.6449 63.3757C52.6955 63.3757 52.8305 62.988 52.9654 62.4992C53.0835 62.0104 53.5389 60.662 53.9438 59.499C54.3655 58.3359 55.2089 56.3302 55.833 55.0323C56.4571 53.7345 57.368 52.0321 57.874 51.2399C58.3632 50.4477 59.2234 49.2004 59.7801 48.4588C60.3367 47.7172 61.6693 46.2339 62.7489 45.172C63.8284 44.1101 65.4309 42.728 66.308 42.1044C67.1851 41.4807 68.6526 40.6042 69.5466 40.166C70.4407 39.7278 71.1828 39.3232 71.1828 39.2727C71.1997 39.2221 70.8792 39.0536 70.4744 38.9019C70.0864 38.7333 68.99 38.1265 68.0454 37.5534C67.1008 36.9635 65.7345 36.0196 65.0092 35.4465C64.2838 34.8903 63.0525 33.7442 62.2597 32.9183C61.4669 32.1092 60.3536 30.8282 59.797 30.0866C59.2234 29.345 58.3632 28.0977 57.874 27.3055C57.368 26.5133 56.4571 24.8109 55.833 23.513C55.2089 22.2152 54.3655 20.2094 53.9438 19.0464C53.5389 17.8834 53.1172 16.535 53.016 16.063C52.9148 15.5742 52.763 15.1697 52.6787 15.1697C52.5943 15.1697 52.4257 15.5742 52.3076 16.063C52.1895 16.535 51.7509 17.8834 51.3461 19.0464ZM72.8865 6.74209C73.1733 6.74209 73.5612 6.89379 73.7974 7.12976C74.0504 7.36574 74.2359 7.78712 74.3203 8.34334C74.3878 8.81528 74.5564 9.64119 74.6914 10.1974C74.8263 10.7536 75.1805 11.6975 75.4842 12.2875C75.7709 12.8943 76.3782 13.7876 76.8505 14.2932C77.3059 14.7989 77.9975 15.3888 78.3686 15.6079C78.7397 15.8271 79.3132 16.0799 79.6337 16.1979C79.9542 16.299 80.3928 16.5518 80.612 16.7541C80.8651 16.9901 81 17.2935 81 17.698C81 18.1025 80.8651 18.4059 80.612 18.6419C80.3928 18.8441 79.9542 19.097 79.6337 19.1981C79.3132 19.3161 78.7397 19.5689 78.3686 19.788C77.9975 20.0072 77.3396 20.5634 76.918 21.0016C76.4963 21.4567 75.9396 22.2489 75.6697 22.7546C75.4167 23.2602 75.0625 24.103 74.8769 24.6086C74.7082 25.1143 74.489 26.0245 74.3878 26.6313C74.2697 27.356 74.0841 27.8617 73.848 28.1145C73.6006 28.373 73.2801 28.5022 72.8865 28.5022C72.4929 28.5022 72.1724 28.373 71.925 28.1145C71.7226 27.8954 71.5033 27.4066 71.4527 26.9684C71.3853 26.547 71.2166 25.7548 71.0816 25.1986C70.9467 24.6423 70.5925 23.6985 70.2888 23.1085C70.0021 22.5017 69.378 21.6084 68.9225 21.1027C68.4502 20.5971 67.7755 20.0072 67.4044 19.788C67.0333 19.5689 66.4598 19.3161 66.1393 19.1981C65.8188 19.097 65.3803 18.8441 65.161 18.6419C64.8911 18.3891 64.7899 18.1194 64.8067 17.6811C64.8067 17.3609 64.908 16.9564 65.0092 16.8047C65.1272 16.653 65.5489 16.4001 65.9706 16.2653C66.3923 16.1136 67.0333 15.8271 67.4044 15.6079C67.7755 15.3888 68.4334 14.8326 68.8551 14.3944C69.2768 13.9393 69.8671 13.1134 70.137 12.5571C70.4238 12.0009 70.8117 11.0065 70.9973 10.366C71.1828 9.72547 71.4021 8.81528 71.4696 8.34334C71.5371 7.80397 71.7226 7.36574 71.9756 7.12976C72.2118 6.89379 72.5829 6.74209 72.8865 6.74209ZM70.5587 16.7035L69.5129 17.698C71.1491 19.2487 71.8913 20.1083 72.2118 20.6308C72.5323 21.1533 72.8359 21.5747 72.8865 21.5747C72.9371 21.5747 73.2407 21.1533 73.5612 20.6308C73.8817 20.1083 74.6239 19.2487 75.2143 18.6924L76.2601 17.698C74.6239 16.1473 73.9155 15.2877 73.6456 14.7652C73.3588 14.2427 73.0552 13.8213 72.9708 13.8213C72.8696 13.8213 72.5323 14.2427 72.2118 14.7652C71.8913 15.2877 71.1491 16.1473 70.5587 16.7035ZM13.4944 31.1822C13.9161 31.1822 14.2197 31.3002 14.4727 31.553C14.7426 31.8395 14.8944 32.2946 15.0294 33.2048C15.1137 33.8959 15.4005 35.2611 15.6366 36.2387C15.8896 37.2163 16.3788 38.7333 16.7499 39.6098C17.1041 40.4863 17.7957 41.8515 18.2849 42.6269C18.7572 43.4022 19.7355 44.6158 20.444 45.3237C21.1524 46.0316 22.1814 46.8744 22.7212 47.1946C23.2609 47.5149 24.2899 48.0205 24.9983 48.2902C25.7068 48.5599 26.449 48.9476 26.6514 49.133C26.8875 49.3521 27.0225 49.6724 27.0225 50.06C27.0225 50.4477 26.8875 50.768 26.6514 50.9871C26.449 51.1725 25.7068 51.5601 24.9983 51.8298C24.2899 52.0995 23.2609 52.6052 22.7212 52.9254C22.1814 53.2457 21.1524 54.0884 20.444 54.7964C19.7355 55.5211 18.7572 56.7347 18.2343 57.5775C17.7282 58.4034 17.0367 59.7518 16.6993 60.5946C16.3619 61.4205 15.8896 62.87 15.6535 63.797C15.4173 64.7241 15.1306 66.0894 15.0294 66.831C14.8944 67.8254 14.7426 68.2805 14.4727 68.5671C14.2253 68.8143 13.9048 68.9435 13.5112 68.9547C13.1177 68.9435 12.7972 68.8143 12.5498 68.5671C12.2799 68.2805 12.1281 67.8254 11.9931 66.9153C11.9088 66.2242 11.622 64.8589 11.3859 63.8813C11.1329 62.9037 10.6437 61.3867 10.2726 60.5103C9.91837 59.6338 9.29425 58.3865 8.88942 57.7292C8.48459 57.0718 7.82674 56.1785 7.45564 55.7065C7.06768 55.2514 6.29175 54.4592 5.70138 53.9704C5.12786 53.4816 4.08205 52.7906 3.39046 52.4366C2.69888 52.0827 1.82174 51.695 1.45065 51.577C1.07955 51.459 0.607247 51.2062 0.387964 51.0039C0.134944 50.768 0 50.4646 0 50.06C0 49.6555 0.134944 49.3521 0.387964 49.1161C0.607247 48.9139 1.07955 48.661 1.45065 48.5431C1.82174 48.4251 2.69888 48.0374 3.39046 47.6834C4.08205 47.3295 5.111 46.6553 5.66764 46.2002C6.22428 45.7451 6.98334 45.0035 7.35444 44.5484C7.72553 44.1101 8.43399 43.0988 8.92316 42.3066C9.41233 41.5144 10.0702 40.1829 10.3907 39.357C10.7112 38.5311 11.1666 37.1152 11.3859 36.2387C11.622 35.3623 11.8919 34.0307 11.9931 33.2891C12.1281 32.3283 12.2799 31.8395 12.5329 31.5698C12.7691 31.3114 13.0895 31.1822 13.4944 31.1822ZM12.5666 41.801C12.2293 42.492 11.5377 43.7056 11.0148 44.4978C10.4919 45.2731 9.4798 46.4867 8.77135 47.1946C8.06289 47.8857 6.98334 48.7959 6.37609 49.2173C5.75198 49.6386 5.26281 50.0095 5.26281 50.06C5.26281 50.1106 5.75198 50.4814 6.37609 50.9028C6.98334 51.3242 8.06289 52.2344 8.77135 52.9254C9.4798 53.6333 10.4919 54.8469 11.0148 55.6223C11.5377 56.4145 12.2293 57.628 12.5666 58.3191C12.8871 59.0102 13.1908 59.7855 13.2414 60.0552C13.292 60.308 13.4269 60.5103 13.5112 60.5103C13.6125 60.5103 13.7305 60.308 13.7811 60.0552C13.8317 59.7855 14.1354 59.0102 14.4559 58.3191C14.7932 57.628 15.4848 56.4145 16.0077 55.6223C16.5306 54.8469 17.5427 53.6333 18.2511 52.9254C18.9427 52.2344 20.0223 51.3242 20.6464 50.9028C21.2536 50.4814 21.7597 50.1106 21.7597 50.06C21.7597 50.0095 21.2705 49.6386 20.6464 49.2173C20.0392 48.7959 18.9596 47.8857 18.2511 47.1946C17.5427 46.4867 16.5306 45.2731 16.0077 44.4978C15.4848 43.7056 14.7932 42.492 14.4559 41.801C14.1354 41.1099 13.8486 40.3346 13.798 40.0817C13.7643 39.812 13.6462 39.6098 13.545 39.6098C13.4606 39.6098 13.3257 39.812 13.2582 40.0817C13.1908 40.3346 12.8871 41.1099 12.5666 41.801Z" fill="#19291F"/>
</svg>
