<svg width="47" height="82" viewBox="0 0 47 82" fill="none" xmlns="http://www.w3.org/2000/svg">
<g clip-path="url(#clip0_284_52)">
<path fill-rule="evenodd" clip-rule="evenodd" d="M42.1218 19.6989C42.3138 19.6829 42.6337 19.8271 42.8577 19.9872C43.0817 20.1474 43.6257 20.9962 44.0736 21.8771C44.5376 22.7419 45.0976 24.0071 45.3376 24.6638C45.5775 25.3204 45.9455 26.6177 46.1535 27.5466C46.4415 28.7478 46.5695 29.9169 46.6495 31.6306C46.7135 33.4724 46.6815 34.4653 46.4575 35.8747C46.3135 36.8837 46.0095 38.3091 45.8015 39.0458C45.5935 39.7665 45.1296 41.0318 44.7776 41.8325C44.4256 42.6493 43.8017 43.8825 43.3697 44.5872C42.9537 45.2759 42.1378 46.429 41.5458 47.1497C40.9379 47.8544 40.1699 48.8153 39.8339 49.2478C39.482 49.6962 38.874 50.6251 38.458 51.3298C37.9301 52.2587 37.3381 53.7962 34.8743 61.4196L34.8263 66.5446C34.7783 71.3814 34.7463 71.7177 34.4263 72.3903C34.2503 72.7907 33.8664 73.4153 33.5944 73.7997C33.3224 74.1681 32.7944 74.6806 32.4105 74.9208C32.0425 75.1771 31.4185 75.5134 30.2986 75.9298L30.2186 77.4032C30.1386 78.6685 30.0586 79.0048 29.6427 79.7575C29.3707 80.238 28.8427 80.8786 28.4747 81.1669C28.1228 81.4392 27.5468 81.7435 27.2108 81.8396C26.8908 81.9196 25.179 81.9997 23.4191 81.9997C21.3232 81.9837 20.0273 81.9196 19.6594 81.7915C19.3554 81.6794 18.8114 81.3751 18.4594 81.1028C18.1075 80.8306 17.6115 80.206 17.3395 79.7415C16.9555 79.0208 16.8595 78.6364 16.6996 75.9298L15.9796 75.6575C15.5796 75.5134 14.9557 75.1771 14.5717 74.9208C14.2037 74.6806 13.6758 74.1681 13.4038 73.7997C13.1318 73.4153 12.7478 72.7907 12.5718 72.3903C12.2359 71.7017 12.2199 71.3814 12.1719 66.2243C12.1239 60.9232 12.1239 60.763 12.7798 59.8982L32.6664 59.8181L33.9784 55.8943C34.6983 53.7321 35.5142 51.506 35.7702 50.9294C36.0422 50.3528 36.5862 49.4239 36.9701 48.8474C37.3381 48.2708 38.2021 47.1497 38.874 46.365C39.546 45.5642 40.3779 44.4911 40.7299 43.9626C41.0819 43.4341 41.6418 42.4571 41.9778 41.8005C42.3138 41.1439 42.8097 39.8786 43.1137 38.9978C43.4017 38.1169 43.7537 36.7075 43.8977 35.8747C44.0256 35.0419 44.1376 33.5685 44.1376 32.5915C44.1376 31.6146 44.0576 30.3173 43.9776 29.7087C43.8817 29.1001 43.6577 28.011 43.4817 27.3064C43.3057 26.6017 42.9057 25.4165 42.5857 24.6638C42.2818 23.911 41.7858 22.886 41.4818 22.3896C41.1778 21.861 40.9379 21.2204 40.9219 20.9161C40.9059 20.4837 41.0019 20.2915 41.3538 20.0353C41.5938 19.8431 41.9298 19.6989 42.1218 19.6989ZM14.6997 64.3825C18.2035 64.3665 18.5074 64.4146 18.8594 64.6868C19.1474 64.9111 19.2594 65.1513 19.2594 65.5677C19.2594 65.9414 19.1367 66.251 18.8914 66.4966C18.5554 66.8329 18.3634 66.865 16.6196 66.897L14.6997 66.945V68.8669H32.2985V66.945L23.3071 66.865C22.7151 66.1763 22.5392 65.8239 22.5392 65.6157C22.5232 65.4236 22.6671 65.0712 22.8591 64.815L23.1791 64.3825H32.2985V62.3005H14.6997V64.3825ZM15.7396 72.5025C16.1396 72.8868 16.7316 73.2552 17.0515 73.3513C17.4035 73.4474 20.1393 73.5114 23.4991 73.5114C26.8588 73.5114 29.5947 73.4474 29.9306 73.3513C30.2666 73.2552 30.8586 72.8868 31.2585 72.5025C31.6425 72.1341 31.9785 71.7337 31.9785 71.6216C31.9785 71.4775 30.1706 71.4294 23.4991 71.4294C16.8276 71.4294 15.0197 71.4775 15.0197 71.6216C15.0197 71.7337 15.3557 72.1341 15.7396 72.5025ZM19.3394 77.0669C19.3394 77.8517 19.4034 78.204 19.7073 78.6364C19.9153 78.9728 20.2993 79.2771 20.6193 79.3892C20.9553 79.5013 22.1232 79.5814 23.4991 79.5814C24.875 79.5814 26.0429 79.5013 26.3789 79.3892C26.6989 79.2771 27.0828 78.9728 27.2908 78.6364C27.5948 78.204 27.6588 77.8517 27.6588 77.0669V76.0739H19.3394V77.0669ZM23.2271 9.32081C23.8191 9.3048 25.003 9.36886 25.8669 9.46495C26.7149 9.56105 28.1388 9.80128 29.0187 10.0255C29.8986 10.2337 31.1625 10.6181 31.8185 10.8743C32.4905 11.1306 33.4504 11.547 33.9784 11.8193C34.5063 12.0915 35.6262 12.7642 36.4582 13.3247C37.2901 13.8853 38.394 14.7181 38.906 15.1825C39.7219 15.9353 39.8179 16.0954 39.8179 16.656C39.8179 17.1845 39.7379 17.3767 39.386 17.6329C39.146 17.8091 38.794 17.9532 38.618 17.9532C38.442 17.9532 37.5781 17.3767 36.6982 16.672C35.8182 15.9673 34.6023 15.1025 33.9784 14.7501C33.3704 14.3978 32.2825 13.8532 31.5785 13.5489C30.8746 13.2446 29.6267 12.8122 28.7787 12.588C27.9468 12.3638 26.3949 12.0915 25.339 11.9794C23.8511 11.8353 23.0031 11.8353 21.5792 11.9794C20.5713 12.0915 19.0674 12.3638 18.2195 12.588C17.3875 12.8122 16.0596 13.2767 15.2597 13.629C14.4757 13.9814 13.1798 14.686 12.3799 15.1985C11.5959 15.711 10.508 16.5278 9.96403 17.0083C9.42007 17.4728 8.52413 18.3696 7.98017 18.9782C7.43621 19.6028 6.68426 20.5798 6.31628 21.1403C5.93231 21.7169 5.37235 22.7099 5.05237 23.3505C4.73239 23.9911 4.31642 24.888 4.14044 25.3525C3.96445 25.8169 3.62847 26.906 3.40449 27.7868C3.10051 29.004 2.98852 29.981 2.92452 31.7907C2.86052 33.6165 2.89252 34.5935 3.10051 35.7946C3.2445 36.6755 3.59647 38.1169 3.88445 38.9978C4.18843 39.8786 4.7004 41.1439 5.02037 41.8005C5.35635 42.4732 5.91631 43.4341 6.26829 43.9626C6.63626 44.4911 7.43621 45.5482 8.06016 46.2849C8.68412 47.0376 9.48406 48.0786 9.85204 48.6071C10.204 49.1357 10.748 50.0806 11.068 50.6892C11.3719 51.3138 11.8839 52.563 12.2039 53.4599C12.5239 54.3568 12.7798 55.3177 12.7798 55.5739C12.7798 55.8782 12.6358 56.2146 12.3959 56.4548C12.1719 56.679 11.8359 56.8712 11.6279 56.8712C11.4359 56.8712 11.068 56.7271 10.828 56.5509C10.492 56.3107 10.284 55.8943 9.99603 54.9013C9.77204 54.1806 9.24408 52.8513 8.81211 51.9704C8.36414 51.0896 7.66019 49.9364 7.24422 49.3759C6.81225 48.8314 6.0603 47.9025 5.56433 47.2939C5.06837 46.7013 4.26842 45.5962 3.80446 44.8435C3.32449 44.1068 2.63654 42.8095 2.26857 41.9607C1.90059 41.1278 1.42062 39.8306 1.21264 39.0778C0.988655 38.3411 0.684676 36.8997 0.540686 35.8747C0.332701 34.4814 0.284705 33.4884 0.364699 31.7107C0.412696 30.3653 0.588683 28.7638 0.764671 27.8669C0.940659 27.0341 1.32463 25.7048 1.59661 24.904C1.86859 24.1193 2.38056 22.9341 2.70054 22.2614C3.03651 21.6048 3.75646 20.3876 4.31642 19.5388C4.95638 18.5939 6.0123 17.3446 7.18022 16.1755C8.34814 15.0064 9.58006 13.9493 10.54 13.3087C11.3879 12.7642 12.7158 11.9954 13.4998 11.611C14.2997 11.2427 15.6436 10.7142 16.5076 10.4419C17.3555 10.1536 18.6994 9.83331 19.4674 9.70519C20.2353 9.57706 21.1472 9.44894 21.4992 9.41691C21.8512 9.38487 22.6351 9.33683 23.2271 9.32081ZM31.3385 22.5978C31.3865 22.5978 31.7065 22.6778 32.0585 22.7739C32.5065 22.9021 33.0664 23.3025 33.8824 24.0872C34.5223 24.7118 35.1623 25.4325 35.2743 25.6728C35.4023 25.913 35.4982 26.3935 35.4982 26.7458C35.4982 27.0982 35.4023 27.6267 35.2583 27.915C35.1303 28.2032 32.1705 31.2943 28.6667 34.7857C23.8991 39.5583 22.1232 41.24 21.5792 41.4802C21.1632 41.6564 20.5233 41.8005 20.0593 41.8005C19.5954 41.8005 18.9554 41.6564 18.5394 41.4802C18.0435 41.256 16.9235 40.247 14.9077 38.229C13.2918 36.6275 11.8679 35.09 11.7399 34.8017C11.6119 34.5134 11.4999 34.0329 11.4999 33.7126C11.4999 33.4083 11.5799 32.9599 11.6759 32.7196C11.7719 32.4794 12.3159 31.7907 12.9078 31.1821C13.4998 30.5896 14.1877 29.997 14.4277 29.8689C14.6677 29.7407 15.1957 29.6286 15.5796 29.6286C15.9796 29.6286 16.5076 29.7407 16.7476 29.8689C16.9875 29.997 17.8355 30.7497 20.0593 33.0079L25.019 28.0271C28.8267 24.2153 30.1386 23.0142 30.6186 22.838C30.9706 22.7099 31.3065 22.5978 31.3385 22.5978ZM25.9789 30.6056C21.2432 35.3462 20.4753 36.0349 20.0593 36.0349C19.6594 36.0349 19.2434 35.6985 17.6275 34.081L15.6596 32.111L14.0597 33.7126C19.1794 38.8376 19.6594 39.254 20.0593 39.238C20.4753 39.238 21.3552 38.4372 26.7789 33.0079L33.0184 26.7618L31.4185 25.1603L25.9789 30.6056Z" fill="#19291F"/>
</g>
<defs>
<clipPath id="clip0_284_52">
<rect width="47" height="82" fill="white"/>
</clipPath>
</defs>
</svg>
