<?xml version="1.0" standalone="no"?>
<!DOCTYPE svg PUBLIC "-//W3C//DTD SVG 20010904//EN"
 "http://www.w3.org/TR/2001/REC-SVG-20010904/DTD/svg10.dtd">
<svg version="1.0" xmlns="http://www.w3.org/2000/svg"
 width="2362.000000pt" height="2362.000000pt" viewBox="0 0 2362.000000 2362.000000"
 preserveAspectRatio="xMidYMid meet">

<g transform="translate(0.000000,2362.000000) scale(0.100000,-0.100000)"
fill="#000000" stroke="none">
<path d="M8096 17403 c51 -94 305 -517 656 -1093 520 -855 803 -1336 986
-1675 44 -82 151 -280 237 -440 713 -1321 1078 -2309 1176 -3185 17 -151 17
-547 0 -670 -92 -659 -531 -1276 -1334 -1873 -83 -62 -203 -149 -264 -192 -62
-43 -113 -79 -113 -81 0 -7 152 40 259 80 255 95 545 237 809 397 764 461
1242 1009 1417 1624 51 179 60 253 60 495 -1 253 -13 345 -85 625 -289 1135
-1300 2840 -2909 4910 -291 374 -916 1145 -928 1145 -3 0 12 -30 33 -67z"/>
<path d="M9385 16865 c33 -55 144 -214 495 -710 763 -1078 1057 -1524 1330
-2020 70 -126 191 -345 270 -485 360 -645 597 -1138 780 -1626 288 -767 390
-1443 290 -1927 -78 -373 -300 -747 -660 -1107 -225 -226 -456 -409 -825 -656
-113 -76 -203 -139 -201 -141 7 -7 275 67 441 122 902 297 1537 762 1805 1320
208 434 209 874 3 1510 -401 1240 -1676 3226 -3508 5467 -218 266 -251 304
-220 253z"/>
<path d="M11236 15321 c20 -33 157 -230 435 -621 585 -823 884 -1282 1091
-1673 533 -1006 843 -1889 909 -2592 17 -180 6 -510 -20 -639 -106 -517 -462
-1005 -1078 -1479 -73 -56 -128 -103 -124 -105 16 -5 334 104 469 162 728 310
1234 746 1434 1235 66 161 89 272 95 462 6 180 -1 259 -43 446 -216 977 -1254
2584 -2952 4571 -124 144 -226 262 -229 262 -2 0 4 -13 13 -29z"/>
<path d="M13830 12636 c0 -4 130 -266 289 -584 378 -754 471 -963 596 -1337
213 -636 241 -1098 89 -1436 -153 -339 -504 -704 -979 -1019 l-110 -73 98 6
c121 8 354 54 512 102 548 166 918 437 1045 767 80 206 79 498 -1 828 -124
509 -474 1205 -1004 1995 -181 269 -535 767 -535 751z"/>
<path d="M7278 7823 l-58 -4 0 -34 c0 -33 0 -34 58 -40 127 -15 172 -41 192
-113 7 -28 10 -330 8 -994 -3 -892 -4 -956 -21 -981 -28 -43 -58 -57 -150 -68
l-87 -12 0 -33 0 -34 395 0 395 0 0 34 0 34 -67 7 c-139 13 -197 42 -222 108
-7 18 -11 173 -11 441 l0 412 78 -12 c163 -26 376 -38 465 -27 245 33 432 154
522 338 41 84 62 159 75 278 25 217 -33 402 -164 525 -78 73 -161 116 -283
149 l-98 27 -485 1 c-267 1 -511 0 -542 -2z m934 -132 c202 -52 311 -166 354
-371 19 -90 14 -325 -9 -405 -67 -236 -220 -326 -506 -297 -136 13 -226 39
-293 81 l-48 31 0 484 0 484 63 6 c34 3 76 8 92 10 68 10 272 -4 347 -23z"/>
<path d="M5540 7786 l0 -34 71 -10 c83 -12 119 -33 119 -67 0 -27 -646 -1908
-675 -1965 -43 -85 -87 -112 -212 -125 l-63 -7 0 -34 0 -34 340 0 340 0 0 34
0 34 -77 7 c-146 12 -184 39 -163 114 11 41 240 711 261 764 l11 27 398 0 398
0 30 -82 c122 -343 245 -726 239 -748 -9 -37 -56 -59 -152 -72 l-85 -11 0 -33
0 -34 380 0 380 0 0 34 0 33 -86 11 c-104 14 -139 33 -178 95 -17 28 -165 444
-373 1050 -189 551 -350 1021 -359 1045 l-16 42 -264 0 -264 0 0 -34z m532
-651 l177 -525 -359 0 -359 0 177 525 c97 289 179 525 182 525 3 0 85 -236
182 -525z"/>
<path d="M8910 7785 c0 -21 5 -35 13 -35 51 -2 162 -22 187 -35 63 -33 60 22
60 -1050 0 -1073 3 -1017 -60 -1050 -17 -9 -69 -21 -115 -27 l-85 -11 0 -33 0
-34 340 0 340 0 0 34 0 33 -85 11 c-102 13 -137 30 -159 76 -14 31 -16 125
-16 983 l0 948 143 -355 c79 -195 269 -665 422 -1043 l278 -688 75 3 74 3 391
1039 392 1038 3 -946 c2 -1039 5 -999 -57 -1031 -18 -9 -70 -21 -116 -27 l-85
-11 0 -33 0 -34 380 0 380 0 0 34 0 34 -67 7 c-86 7 -150 32 -177 68 l-21 28
0 984 0 984 21 28 c27 36 91 61 177 68 l67 7 0 34 0 34 -287 0 -288 0 -365
-960 c-200 -528 -367 -956 -371 -952 -4 4 -178 435 -387 957 l-380 950 -311 3
-311 2 0 -35z"/>
<path d="M12510 7786 l0 -35 58 -6 c83 -9 125 -26 136 -56 7 -21 -51 -199
-324 -990 -183 -530 -343 -983 -357 -1007 -43 -74 -84 -95 -205 -107 l-68 -7
0 -34 0 -34 345 0 345 0 0 33 0 34 -96 10 c-119 13 -150 31 -147 89 1 22 62
212 136 424 l134 385 402 3 c220 1 401 0 401 -2 0 -2 58 -174 129 -383 71
-208 132 -392 135 -409 13 -63 -35 -92 -181 -109 -52 -7 -53 -7 -53 -41 l0
-34 380 0 380 0 0 34 0 34 -67 7 c-129 12 -168 35 -212 124 -22 43 -481 1364
-703 2024 l-30 87 -269 0 -269 0 0 -34z m540 -654 l175 -517 -354 -3 c-195 -1
-355 -1 -357 1 -2 2 76 238 173 525 97 287 179 520 182 516 3 -3 85 -238 181
-522z"/>
<path d="M14420 7786 l0 -35 58 -6 c137 -15 198 -41 229 -97 16 -30 18 -58 16
-278 -3 -294 -18 -635 -39 -860 -34 -382 -104 -646 -213 -805 l-47 -70 -137
-3 c-130 -2 -137 -4 -137 -23 0 -23 57 -527 66 -577 l5 -33 97 3 97 3 3 253 2
252 790 0 790 0 0 -255 0 -256 98 3 97 3 32 275 c17 151 34 292 36 313 l5 37
-139 0 -140 0 3 1003 c3 946 4 1004 21 1035 20 37 83 71 132 72 17 0 47 3 68
6 34 6 37 9 37 40 l0 34 -915 0 -915 0 0 -34z m1350 -1121 l0 -1035 -559 0
-560 0 29 63 c101 223 161 550 190 1037 10 168 30 762 30 903 l0 67 435 0 435
0 0 -1035z"/>
<path d="M17160 7786 l0 -35 58 -6 c82 -8 126 -32 130 -71 4 -43 -646 -1928
-687 -1992 -40 -63 -74 -80 -176 -94 l-85 -11 0 -33 0 -34 340 0 340 0 0 34 0
33 -96 11 c-113 13 -144 29 -144 75 0 17 61 211 137 430 l137 397 401 -2 400
-3 132 -385 c147 -427 151 -450 97 -482 -17 -10 -70 -23 -118 -30 l-86 -11 0
-33 0 -34 380 0 380 0 0 34 0 34 -62 7 c-137 15 -175 41 -226 155 -16 36 -184
518 -373 1072 l-344 1008 -267 0 -268 0 0 -34z m535 -650 c96 -286 175 -520
175 -522 0 -2 -160 -4 -355 -4 -203 0 -355 4 -355 9 0 7 318 954 345 1030 3 8
7 12 10 9 2 -2 83 -237 180 -522z"/>
</g>
</svg>
