<svg width="333" height="56" viewBox="0 0 333 56" fill="none" xmlns="http://www.w3.org/2000/svg">
<g clip-path="url(#clip0_217_584)">
<path d="M84.2529 12.6334V14.6784H100.803C101.906 14.6784 103.561 14.6784 104.647 15.8481C105.734 17.0177 105.751 18.7721 105.751 19.924V37.4683C105.751 38.6379 105.751 40.3924 104.647 41.5443C103.544 42.7139 101.889 42.7139 100.803 42.7139H92.812C91.4345 42.7139 89.6391 42.7139 88.9671 41.1048C88.2783 39.4956 89.2426 38.0354 90.0704 36.8516L100.836 21.6465H84.2864L77.6665 31.0035C76.5565 32.5701 75.5969 33.9275 75.5969 35.682C75.5969 37.4364 76.4896 38.6982 77.6665 40.3605L79.3214 42.6997C80.9764 45.0389 82.6314 47.3782 84.838 48.5478C87.0446 49.7174 89.6525 49.7174 93.2633 49.7174H100.418C104.564 49.7174 110.749 49.7174 114.895 45.3225C119.041 40.9275 119.041 34.5124 119.041 32.1731V25.1554C119.041 22.8162 119.041 16.401 114.895 12.006C110.749 7.61109 104.564 7.61109 100.418 7.61109L88.9838 7.60719C87.8805 7.60684 86.503 7.60719 85.4064 8.77681C84.3031 9.94643 84.3031 11.4067 84.3031 12.5692" fill="#C4151C"/>
<path d="M64.5272 14.0356H80.9097L61.1838 42.1774H44.8013L64.5272 14.0356Z" fill="#C4151C"/>
<path d="M0 18.9977C0 17.828 0 16.3678 1.10331 15.2053C2.20663 14.0427 3.5841 14.0356 4.68072 14.0356H32.3973C35.9747 14.0356 38.616 14.0356 40.8226 15.2053C43.0292 16.3749 44.6675 18.7141 46.3392 21.0534L47.9941 23.3926C49.1676 25.0513 50.0637 26.3167 50.0637 28.0711C50.0637 29.8255 49.1041 31.183 47.9941 32.7496L41.3742 42.1065H24.8245L35.5902 26.9015C36.416 25.7318 37.3823 24.2716 36.6935 22.6483C36.0048 21.0392 34.2127 21.0392 32.8486 21.0392H19.8764V56.1278H6.6366V21.0392H0.0167169V18.9906" fill="#C4151C"/>
<path d="M134.738 44.8865C133.745 46.3184 132.732 47.729 131.739 49.1396V49.9406H134.537C135.908 48.0054 136.624 46.9953 136.624 45.8292H139.365V49.9406H141.986V45.8292H144.728C144.728 46.9882 145.444 47.9984 146.814 49.9406H149.613V49.1396L146.594 44.8865C149.135 42.8662 149.135 42.8662 149.135 40.208V39.3254H146.276V40.208C146.276 43.4298 146.276 43.4298 143.297 43.4298H141.986V39.3184H139.365V43.4298H138.055C135.076 43.4298 135.076 43.4298 135.076 40.208V39.3254H132.217V40.208C132.217 42.8591 132.217 42.8591 134.738 44.8865Z" fill="#231F20"/>
<path fill-rule="evenodd" clip-rule="evenodd" d="M154.798 43.4688C154.798 41.1331 154.798 41.1331 157.239 41.1331C159.68 41.1331 159.68 41.1331 159.68 43.4688H154.798ZM154.798 45.3615H157.239C159.8 45.3402 160.556 45.3828 161.418 45.1719L162.431 44.9195V43.8881C162.431 42.1408 162.431 38.8552 157.717 38.8552H156.764C152.05 38.8552 152.05 42.1372 152.05 43.9236V44.9337C152.05 46.8264 152.09 50.0021 157.266 50.0021C158.041 50.0021 159.787 50.0021 161.679 49.4988V47.2269H161.144L159.238 47.7302H157.212C154.772 47.7295 154.772 47.7295 154.772 45.3945L154.798 45.3615Z" fill="#231F20"/>
<path d="M166.834 39.1448C166.834 40.7433 166.715 45.56 164.333 48.9271V49.7493H167.252C168.981 47.3073 168.981 44.1139 168.981 41.4911H173.093V49.7493H175.714V39.1519H166.854" fill="#231F20"/>
<path fill-rule="evenodd" clip-rule="evenodd" d="M181.545 43.4688C181.545 41.1331 181.545 41.1331 183.989 41.1331C186.43 41.1331 186.43 41.1331 186.43 43.4688H181.549M181.549 45.3615H183.993C186.554 45.3402 187.309 45.3828 188.172 45.1719L189.185 44.9195V43.8881C189.185 42.1408 189.185 38.8552 184.471 38.8552H183.518C178.804 38.8552 178.804 42.1372 178.804 43.9236V44.9337C178.804 46.8264 178.843 50.0021 184.019 50.0021C184.795 50.0021 186.54 50.0021 188.433 49.4988V47.2269H187.898L185.992 47.7302H183.966C181.525 47.7295 181.525 47.7295 181.525 45.3945L181.549 45.3615Z" fill="#231F20"/>
<path d="M198.931 44.532V44.2162C200.957 43.6704 200.957 42.3448 200.957 41.838C200.957 40.8279 200.957 38.8076 196.142 38.8076C195.427 38.8076 193.758 38.8076 191.863 39.3145V41.5864H192.398L194.303 41.0795H196.507C198.035 41.0795 198.115 41.0795 198.115 42.2562C198.115 43.4152 198.115 43.4152 196.507 43.4152H194.303V45.3079H196.507C198.035 45.3079 198.115 45.3079 198.115 46.4669C198.115 47.6471 198.115 47.6471 196.507 47.6471H194.303L192.398 47.1403H191.863V49.4122C193.769 49.9155 195.44 49.9155 196.142 49.9155C200.957 49.9155 200.957 47.8952 200.957 46.8851C200.957 46.3818 200.957 45.0562 198.931 44.5281" fill="#231F20"/>
<path d="M211.97 39.1448V43.1144H206.62V39.1448H203.946V49.8486H206.62V45.5954H211.97V49.8486H214.31V39.1448H211.97Z" fill="#231F20"/>
<path fill-rule="evenodd" clip-rule="evenodd" d="M222.669 44.532C224.755 44.532 224.755 44.532 224.755 46.173C224.755 47.814 224.755 47.814 222.669 47.814H220.582V44.532H222.669ZM232.03 39.2155H229.409V49.813H232.03V39.2155ZM223.036 49.813C226.193 49.813 227.517 49.0758 227.517 46.1978C227.517 44.6206 227.517 42.3345 223.404 42.3345C222.809 42.3345 221.796 42.3983 220.606 42.7137V39.1765H217.985V49.774H223.033L223.036 49.813Z" fill="#231F20"/>
<path fill-rule="evenodd" clip-rule="evenodd" d="M238.048 43.4686C238.048 41.1329 238.048 41.1329 240.489 41.1329C242.93 41.1329 242.93 41.1329 242.93 43.4686H238.048ZM238.048 45.3613H240.489C243.05 45.34 243.806 45.3825 244.668 45.1716L245.681 44.9193V43.8879C245.681 42.1405 245.681 38.855 240.967 38.855H240.014C235.3 38.855 235.3 42.137 235.3 43.9233V44.9335C235.3 46.8261 235.34 50.0018 240.516 50.0018C241.291 50.0018 243.037 50.0018 244.929 49.4985V47.2266H244.394L242.488 47.7299H240.462C238.022 47.7292 238.022 47.7292 238.022 45.3942L238.048 45.3613Z" fill="#231F20"/>
<path fill-rule="evenodd" clip-rule="evenodd" d="M256.437 44.1774C256.437 41.3349 256.437 41.3987 259.981 41.3987C260.459 41.3987 261.114 41.4614 261.906 41.651V46.1877L259.366 46.8611C256.427 46.8615 256.427 46.8615 256.427 44.1675M254.879 51.5042V53.9037C256.784 54.4105 258.322 54.4105 258.924 54.4105C264.34 54.4105 264.508 51.9259 264.508 49.094V39.2409H263.652L262.381 40.251C261.509 39.0495 259.382 39.0105 258.704 39.0105C253.655 39.0105 253.655 42.3776 253.655 43.9016V44.4085C253.655 46.1771 253.655 49.087 257.935 49.087C259.225 49.087 260.753 48.7077 261.88 47.8252V48.7077C261.88 51.9685 261.82 51.9897 258.663 51.9897H257.293L255.387 51.4829H254.852L254.879 51.5042Z" fill="#231F20"/>
<path fill-rule="evenodd" clip-rule="evenodd" d="M272.485 38.8965C267.437 38.8965 267.437 42.0545 267.437 43.9648V44.975C267.437 46.8676 267.437 50.0433 272.485 50.0433H273.438C278.486 50.0433 278.486 46.8853 278.486 44.975V43.9648C278.486 42.0722 278.486 38.8965 273.438 38.8965H272.485ZM272.96 41.2322C275.758 41.2322 275.758 41.2322 275.758 44.454C275.758 47.6757 275.758 47.6757 272.96 47.6757C270.161 47.6757 270.161 47.6757 270.161 44.454C270.161 41.2322 270.161 41.2322 272.96 41.2322Z" fill="#231F20"/>
<path fill-rule="evenodd" clip-rule="evenodd" d="M289.536 44.532C289.536 47.69 289.536 47.69 286.617 47.69C285.902 47.69 284.989 47.69 284.056 47.4373V42.1208L286.597 41.4474C289.536 41.4474 289.536 41.4892 289.536 44.5203M281.445 39.2039V54.0899H284.066V49.4823C285.257 49.7981 286.209 50.0494 287.644 50.0494C292.291 50.0494 292.291 46.4342 292.291 44.9811V43.9709C292.291 42.2023 292.291 38.9026 287.945 38.9026C285.721 38.9026 284.434 39.934 283.732 40.5011L282.779 39.1542H281.468L281.445 39.2039Z" fill="#231F20"/>
<path fill-rule="evenodd" clip-rule="evenodd" d="M300.235 38.8965C295.187 38.8965 295.187 42.0545 295.187 43.9648V44.975C295.187 46.8676 295.187 50.0433 300.235 50.0433H301.188C306.236 50.0433 306.236 46.8853 306.236 44.975V43.9648C306.236 42.0722 306.236 38.8965 301.188 38.8965H300.235ZM300.71 41.2322C303.508 41.2322 303.508 41.2322 303.508 44.454C303.508 47.6757 303.508 47.6757 300.71 47.6757C297.911 47.6757 297.911 47.6757 297.911 44.454C297.911 41.2322 297.911 41.2322 300.71 41.2322Z" fill="#231F20"/>
<path d="M313.943 38.8965C312.99 38.8965 311.739 38.8965 309.83 39.4033V41.6752H310.365L312.271 41.1719H314.712C316.022 41.1719 316.022 41.1719 316.022 41.9729C316.022 42.5188 316.022 42.6889 315.009 42.8767L312.625 43.5076C311.255 43.8656 309.349 44.4114 309.349 46.6018C309.349 48.055 309.349 50.0114 314.163 50.0114C315.116 50.0114 316.367 50.0114 318.276 49.5081V47.2362H317.741C316.945 47.4677 316.193 47.658 315.895 47.7431H313.394C312.084 47.7431 312.084 47.7431 312.084 46.9421C312.084 46.46 312.084 46.3537 312.639 46.1836L313.969 45.8043L315.477 45.4038C316.848 45.0459 318.754 44.5213 318.754 42.3097C318.753 40.8565 318.753 38.9 313.939 38.9" fill="#231F20"/>
<path d="M330.994 50.2027L332.94 48.6645C332.224 47.6544 332.224 47.6544 332.224 45.8645V39.3075H329.603V46.9987L327.062 47.6721C324.36 47.6721 324.36 47.6721 324.36 44.748V39.2898H321.739V45.1733C321.739 47.2574 321.739 50.1708 325.718 50.1708C327.804 50.1708 329.095 49.1394 329.797 48.5723L330.967 50.2133" fill="#231F20"/>
<path fill-rule="evenodd" clip-rule="evenodd" d="M132.397 13.8028V28.6889H135.256V24.5775H137.52C141.398 24.5775 144.44 24.5775 144.44 19.1901C144.44 13.7673 141.401 13.7673 137.52 13.7673H132.404M135.263 21.9192V16.4256H138.706C141.267 16.4256 141.388 16.4256 141.388 19.183C141.388 21.8554 141.388 21.9192 138.706 21.9192H135.263Z" fill="#231F20"/>
<path fill-rule="evenodd" clip-rule="evenodd" d="M151.789 17.8433C146.74 17.8433 146.74 21.0012 146.74 22.9116V23.9217C146.74 25.8144 146.74 28.9901 151.789 28.9901H152.742C157.79 28.9901 157.79 25.8321 157.79 23.9217V22.9116C157.79 21.019 157.79 17.8433 152.742 17.8433H151.789ZM152.264 20.179C155.062 20.179 155.062 20.179 155.062 23.4007C155.062 26.6225 155.062 26.6225 152.264 26.6225C149.465 26.6225 149.465 26.6225 149.465 23.4007C149.465 20.179 149.465 20.179 152.264 20.179Z" fill="#231F20"/>
<path d="M165.497 28.9723C166.212 28.9723 168.058 28.9723 169.977 28.4655V26.1936H169.442L167.516 26.6969H166.386C163.069 26.6969 163.069 26.6969 163.069 23.4149C163.069 20.1329 163.069 20.1329 165.51 20.1329C167.576 20.1329 167.576 20.1329 168.071 22.2169L170.455 21.586C170.455 20.5759 170.455 17.8645 165.975 17.8645H165.022C160.308 17.8645 160.308 21.0225 160.308 22.9329V23.943C160.308 25.8356 160.308 29.0113 165.49 29.0113" fill="#231F20"/>
<path d="M178.202 28.9723C178.917 28.9723 180.763 28.9723 182.682 28.4655V26.1936H182.147L180.221 26.6969H179.091C175.774 26.6969 175.774 26.6969 175.774 23.4149C175.774 20.1329 175.774 20.1329 178.215 20.1329C180.281 20.1329 180.281 20.1329 180.776 22.2169L183.16 21.586C183.16 20.5759 183.16 17.8645 178.68 17.8645H177.727C173.013 17.8645 173.013 21.0225 173.013 22.9329V23.943C173.013 25.8356 173.013 29.0113 178.195 29.0113" fill="#231F20"/>
<path d="M194.919 29.0079L196.864 27.4697C196.149 26.4595 196.149 26.4595 196.149 24.6697V18.1127H193.528V25.8038L190.987 26.4773C188.285 26.4773 188.285 26.4773 188.285 23.5532V18.095H185.664V23.9785C185.664 26.0626 185.664 28.976 189.643 28.976C191.729 28.976 193.019 27.9446 193.722 27.3775L194.892 29.0185" fill="#231F20"/>
<path fill-rule="evenodd" clip-rule="evenodd" d="M204.28 14.3344C202.989 14.3344 202.989 14.3344 202.354 13.5759L201.204 14.5223C202.455 16.2271 203.09 16.3547 204.915 16.3547H205.353C207.159 16.3547 207.814 16.2281 209.031 14.5223L207.881 13.5759C207.266 14.3344 207.266 14.3344 205.955 14.3344H204.267M209.115 29.0433L211.06 27.505C210.345 26.4949 210.345 26.4949 210.345 24.705V18.1481H207.724V25.8392L205.183 26.5126C202.541 26.5126 202.481 26.5126 202.481 23.5886V18.1304H199.86V24.0139C199.86 26.098 199.86 29.0114 203.839 29.0114C205.925 29.0114 207.216 27.98 207.918 27.4129L209.088 29.0539L209.115 29.0433Z" fill="#231F20"/>
<path d="M218.657 28.9723C219.372 28.9723 221.218 28.9723 223.137 28.4655V26.1936H222.602L220.676 26.6969H219.543C216.226 26.6969 216.226 26.6969 216.226 23.4149C216.226 20.1329 216.226 20.1329 218.667 20.1329C220.733 20.1329 220.733 20.1329 221.228 22.2169L223.612 21.586C223.612 20.5759 223.611 17.8645 219.131 17.8645H218.179C213.464 17.8645 213.464 21.0225 213.464 22.9329V23.943C213.465 25.8356 213.465 29.0113 218.647 29.0113" fill="#231F20"/>
<path d="M226.681 18.1269V28.7243H229.302V24.6129H232.518C232.518 25.7719 233.234 26.7821 234.601 28.7243H237.399V27.9233L234.38 23.6702C236.921 21.6499 236.921 21.6499 236.921 18.9917V18.1091H234.063V18.9917C234.063 22.2134 234.063 22.2134 231.084 22.2134H229.298V18.1021H226.677" fill="#231F20"/>
<path d="M249.416 29.0079L251.361 27.4697C250.646 26.4595 250.646 26.4595 250.646 24.6697V18.1127H248.025V25.8038L245.484 26.4773C242.782 26.4773 242.782 26.4773 242.782 23.5532V18.095H240.161V23.9785C240.161 26.0626 240.161 28.976 244.14 28.976C246.226 28.976 247.517 27.9446 248.219 27.3775L249.389 29.0185" fill="#231F20"/>
<path fill-rule="evenodd" clip-rule="evenodd" d="M256.437 22.4508C256.437 20.1151 256.437 20.1151 258.881 20.1151C261.321 20.1151 261.321 20.1151 261.321 22.4508H256.44M256.44 24.3434H258.884C261.445 24.3222 262.201 24.3647 263.063 24.1538L264.076 23.9015V22.8701C264.076 21.1227 264.076 17.8372 259.362 17.8372H258.409C253.695 17.8372 253.695 21.1192 253.695 22.9055V23.9156C253.695 25.8083 253.735 28.984 258.911 28.984C259.686 28.984 261.432 28.984 263.324 28.4772V26.2053H262.789L260.883 26.7086H258.857C256.413 26.7082 256.413 26.7082 256.413 24.3729L256.44 24.3434Z" fill="#231F20"/>
</g>
<defs>
<clipPath id="clip0_217_584">
<rect width="333" height="56" fill="white"/>
</clipPath>
</defs>
</svg>
