<svg width="235" height="42" viewBox="0 0 235 42" fill="none" xmlns="http://www.w3.org/2000/svg">
<path fill-rule="evenodd" clip-rule="evenodd" d="M76.9662 23.3238H85.5449L87.2223 16.3512C87.48 15.285 87.0941 14.4321 86.0287 13.7925C85.8357 13.6858 85.6731 13.5792 85.4801 13.4945C84.5139 13.047 83.2872 12.812 81.8689 12.812C79.4817 12.812 77.6443 13.1537 76.3542 13.8134L76.5472 12.9824H68.0002L63.4531 31.6816L61.937 37.9289H70.484L75.3549 17.8647C75.5479 17.1394 76.1282 16.7558 77.0958 16.7558C78.0964 16.7558 78.4824 17.1394 78.2894 17.9067L76.9662 23.3238ZM231.681 3.79182C231.906 3.64326 232.035 3.43003 232.035 3.15302C232.035 2.81133 231.875 2.57713 231.583 2.4277C231.294 2.27826 230.842 2.19263 230.231 2.19263H228.295V5.56142H229.069V4.08981H229.973L230.004 4.13263L231.295 5.56142H232.165L230.713 4.06884C231.131 4.04874 231.422 3.94125 231.681 3.79182ZM229.068 3.66511V2.61995H230.132C230.454 2.61995 230.712 2.6619 230.873 2.72657C231.101 2.79123 231.23 2.93979 231.23 3.1102C231.23 3.34527 231.101 3.5148 230.843 3.57947C230.683 3.64326 230.391 3.66511 230.004 3.66511H229.068Z" fill="#CC2229"/>
<path fill-rule="evenodd" clip-rule="evenodd" d="M233.131 1.78848C232.262 1.23444 231.229 0.956543 230.003 0.956543C228.776 0.956543 227.713 1.23444 226.842 1.78848C225.972 2.34251 225.52 3.04598 225.52 3.85606C225.52 4.70984 225.972 5.39147 226.842 5.96735C227.712 6.50041 228.744 6.77743 230.003 6.77743C231.229 6.77743 232.292 6.50041 233.163 5.9455C234.036 5.39146 234.455 4.70897 234.455 3.85606C234.453 3.04686 234.003 2.36436 233.131 1.78848ZM232.551 5.60556C231.874 6.07483 231.002 6.30903 230.003 6.30903C228.97 6.30903 228.131 6.07483 227.454 5.60556C226.744 5.13629 226.422 4.56128 226.422 3.85694C226.422 3.17531 226.744 2.59943 227.454 2.15114C228.131 1.68274 228.969 1.44766 230.003 1.44766C231.002 1.44766 231.841 1.68274 232.551 2.15114C233.228 2.62128 233.584 3.17531 233.584 3.85694C233.584 4.56041 233.228 5.13629 232.551 5.60556ZM46.4879 7.11912H38.7155L32.105 21.3415L32.9761 7.11912H22.2997L15.6231 21.3415L16.6555 7.11912H8.17331L6.04517 37.9302H15.6879L23.0095 20.9368L22.2667 37.9302H33.4916L43.7147 13.6653L46.4879 7.11912ZM64.8732 17.8652C65.2287 16.3516 64.7436 15.1999 63.4535 14.3898C63.2536 14.2576 63.0379 14.1363 62.8085 14.0271C61.0029 13.217 58.8099 12.8115 56.165 12.8115C55.0044 12.8115 53.9403 12.8544 52.9397 12.961C48.1666 13.4722 45.4251 15.1789 44.7153 18.0784L43.7147 22.2145L41.1027 33.0033C40.5872 35.1137 41.457 36.6072 43.7147 37.4383C45.1991 37.9932 47.2955 38.2702 50.0039 38.2702C51.068 38.2702 52.0356 38.2274 52.9384 38.1426C57.7115 37.6943 60.4543 36.0523 61.1311 33.2384L63.4535 23.6651L64.8732 17.8652ZM56.2932 17.908L52.9384 31.682L52.5841 33.1746C52.3898 34.0284 51.7778 34.454 50.8102 34.454C49.8109 34.454 49.4236 34.0284 49.6166 33.1746L52.9384 19.4006L53.3257 17.908C53.5187 17.0761 54.1003 16.6706 55.0996 16.6706C56.1002 16.6715 56.4875 17.0769 56.2932 17.908ZM99.7047 7.11912H91.1577L85.4818 30.4673L83.6749 37.9302H92.2549L97.3505 16.8419L99.7047 7.11912ZM181.658 18.0793C182.012 16.6077 181.723 15.4349 180.819 14.582C179.562 13.4093 177.078 12.8124 173.368 12.8124C171.628 12.8124 170.045 12.919 168.692 13.1541C164.789 13.7938 162.563 15.372 161.951 17.866L160.726 22.855H168.982C169.08 22.4923 169.175 21.9602 169.24 21.2558C169.369 20.5523 169.467 20.0193 169.562 19.6566C170.045 17.6738 170.819 16.6706 171.951 16.6706C172.95 16.6706 173.337 17.0761 173.143 17.908L172.239 21.5966C172.141 22.0231 171.012 22.5981 168.852 23.3243C168.787 23.3452 168.757 23.3453 168.692 23.3671C165.047 24.5827 162.563 25.606 161.241 26.437C160.694 26.7796 160.209 27.1623 159.855 27.5678C159.347 28.1157 159.007 28.7245 158.855 29.3593L157.629 34.3692C157.211 36.0968 157.951 37.2477 159.855 37.8236C160.822 38.1225 162.111 38.2719 163.69 38.2719C165.98 38.2719 167.659 38.0159 168.691 37.5256C169.013 37.3561 169.303 37.184 169.496 36.9716L169.271 37.9311H176.818L180.816 21.5337L181.658 18.0793ZM169.402 33.2603C169.304 33.7077 169.08 34.0284 168.692 34.2198C168.411 34.3529 168.071 34.4208 167.725 34.4129C166.692 34.4129 166.273 34.0293 166.468 33.2611L167.562 28.7406C167.692 28.2494 168.047 27.8457 168.692 27.504C169.24 27.227 170.014 27.0129 170.982 26.8425L169.402 33.2603ZM198.945 25.2223C194.59 23.5594 192.268 22.3639 191.946 21.6823C191.656 21.0006 191.656 19.9765 192.011 18.6333C192.3 17.333 193.01 16.6715 194.075 16.6715C195.139 16.6715 195.397 17.7166 194.912 19.7851L193.978 22.7912H202.332L202.621 21.5757L203.525 17.8652C203.879 16.4373 203.59 15.3274 202.621 14.5174C201.33 13.3874 198.815 12.8115 195.042 12.8115C188.399 12.8115 184.656 14.5602 183.819 18.0784L183.012 21.4253C182.689 22.7685 182.885 23.749 183.657 24.4315C184.4 25.093 186.82 26.2657 190.883 27.9497C191.913 28.5466 192.172 29.9107 191.658 32.022C191.268 33.6421 190.591 34.4522 189.623 34.4522C188.659 34.4522 188.302 34.0266 188.495 33.1729L189.786 27.885H181.238L180.82 29.6966L179.95 33.2367C179.628 34.6017 179.917 35.6888 180.82 36.4988C182.111 37.6926 184.723 38.2684 188.659 38.2684C195.4 38.2684 199.205 36.5189 200.041 33.0016L200.945 29.2701C201.364 27.5888 200.685 26.2456 198.945 25.2223ZM111.542 13.7291C110.606 13.1751 109.188 12.8762 107.188 12.8343C106.963 12.8124 106.704 12.8124 106.478 12.8124C104.737 12.8124 103.221 13.1113 101.834 13.751C100.481 14.3697 99.673 15.2226 99.4152 16.2669L97.3505 24.7749L95.0598 34.1988C94.7703 35.4563 95.2858 36.4377 96.6407 37.184C96.8667 37.2906 97.0928 37.419 97.3505 37.5038C98.6089 38.0159 100.124 38.2719 101.962 38.2719C103.801 38.2719 105.542 37.8883 107.188 37.1202C107.188 37.0992 107.221 37.0992 107.221 37.0992L107.736 37.9311H114.187L121.667 7.11999H113.121L111.542 13.7291ZM110.542 17.7804L107.188 31.6611L106.802 33.2603C106.609 34.0284 106.027 34.412 105.059 34.412C104.06 34.412 103.641 34.0284 103.802 33.2603L107.189 19.4014L107.576 17.8232C107.737 17.056 108.351 16.6715 109.35 16.6715C110.315 16.6715 110.735 17.0341 110.542 17.7804ZM216.813 12.8124C210.169 12.8124 206.428 14.561 205.589 18.0793L204.784 21.4262C204.461 22.7694 204.654 23.7499 205.429 24.4323C206.17 25.0939 208.589 26.2666 212.652 27.9506C213.685 28.5474 213.944 29.9116 213.427 32.0228C213.04 33.643 212.363 34.4531 211.395 34.4531C210.428 34.4531 210.073 34.0275 210.266 33.1737L211.555 27.8859H203.01L202.622 29.5061L201.718 33.2375C201.396 34.6235 201.685 35.7316 202.622 36.5425C203.944 37.6934 206.557 38.2702 210.426 38.2702C217.168 38.2702 220.973 36.5207 221.811 33.0033L222.715 29.2719C223.133 27.587 222.458 26.2439 220.714 25.2206C216.361 23.5576 214.038 22.3621 213.715 21.6805C213.426 20.9989 213.426 19.9747 213.78 18.6316C214.072 17.3312 214.782 16.6697 215.845 16.6697C216.907 16.6697 217.166 17.7149 216.684 19.7833L215.749 22.7895H224.101L225.293 17.8643C226.132 14.4964 223.296 12.8124 216.813 12.8124ZM162.177 7.11912H153.631L148.307 28.9957L146.147 37.9302H154.695L159.856 16.6933L162.177 7.11912ZM138.471 25.5623L136.633 33.1536C136.503 33.6657 136.021 33.9218 135.181 33.9218C134.277 33.9218 133.859 33.6657 133.989 33.1536L139.181 11.7891C139.311 11.277 139.826 11.0219 140.73 11.0219C141.567 11.0219 141.954 11.277 141.825 11.7891L140.343 17.8879H148.952L150.307 12.3012C150.824 10.2546 150.144 8.78298 148.306 7.88813C146.889 7.18378 144.728 6.84297 141.857 6.84297C134.568 6.84297 130.437 8.8258 129.472 12.8343L124.665 32.6634C123.763 36.3739 126.954 38.2073 134.245 38.2073C136.76 38.2073 139.148 37.7817 141.34 36.8851C143.566 36.0112 144.856 34.8385 145.21 33.3677L147.112 25.5632L138.471 25.5623Z" fill="#CC2229"/>
</svg>
